# xmcd
#
# Track frame offsets:
#	150
#	16570
#	29520
#	45262
#	57465
#	73462
#	86795
#	106652
#	122207
#	140822
#	155227
#	169480
#	179780
#	192460
#	209030
#	225735
#	235715
#
# Disc length: 3453 seconds
#
# Revision: 1
# Processed by: cddbd v1.5.2PL0 Copyright (c) Steve Scherf et al.
# Submitted via: audiograbber 1.83.01
#
DISCID=040d7b11
DTITLE=Radio Jukebox  - Radio Jukebox 09
DYEAR=1999
DGENRE=Country
TTITLE0=Big Bad Mama - Johnny Paycheck
TTITLE1=Pink and Black Days - Narvel Felts
TTITLE2=Over´s Never Easy - Ernie Ashworth
TTITLE3=For The Last Time - Sharon Lee Beavers
TTITLE4=The Warrior Is A Child - Angel Leasure
TTITLE5=It All Comes Back To Me - Chip Eddleman
TTITLE6=At Seventeen - Lori Krzan
TTITLE7=Turn On The Night Light - Buddy Bowles
TTITLE8=Sweetnes - Woody Wills
TTITLE9=If I´mgonna Be Your Man - Chuck Schriver
TTITLE10=Ode To Buford Pusser - Eddie Bond
TTITLE11=She Kissed Me Goodbye - Adam Coy
TTITLE12=I Bet There Ain´t No Honky Tonk In Hell - Shad Ray Bolton
TTITLE13=Don´t Say You Love Me - Selena Salman
TTITLE14=Glasses Your Wear - Jim Fullen
TTITLE15=Hurts So Good - Bill Herrel
TTITLE16=Gota Go - Bobby Sanders
EXTD=
EXTT0=
EXTT1=
EXTT2=
EXTT3=
EXTT4=
EXTT5=
EXTT6=
EXTT7=
EXTT8=
EXTT9=
EXTT10=
EXTT11=
EXTT12=
EXTT13=
EXTT14=
EXTT15=
EXTT16=
PLAYORDER=
